<mxfile host="app.diagrams.net" modified="2023-05-24T16:50:07.673Z" agent="Mozilla/5.0 (Windows NT 10.0; Win64; x64) AppleWebKit/537.36 (KHTML, like Gecko) Chrome/113.0.0.0 Safari/537.36" etag="zj5wXPvTufjfoTDc4-rm" version="21.3.3" type="device">
  <diagram id="prtHgNgQTEPvFCAcTncT" name="Page-1">
    <mxGraphModel dx="1050" dy="573" grid="1" gridSize="10" guides="1" tooltips="1" connect="1" arrows="1" fold="1" page="1" pageScale="1" pageWidth="827" pageHeight="1169" math="0" shadow="0">
      <root>
        <mxCell id="0" />
        <mxCell id="1" parent="0" />
        <mxCell id="iM-_FX0-FtEjdSJRzuxN-2" value="Bot" style="swimlane;whiteSpace=wrap;html=1;startSize=30;" vertex="1" parent="1">
          <mxGeometry x="120" y="190" width="170" height="620" as="geometry" />
        </mxCell>
        <mxCell id="iM-_FX0-FtEjdSJRzuxN-3" value="Обработка асинхронных игровых событий" style="rounded=1;whiteSpace=wrap;html=1;" vertex="1" parent="iM-_FX0-FtEjdSJRzuxN-2">
          <mxGeometry x="10" y="120" width="150" height="40" as="geometry" />
        </mxCell>
        <mxCell id="iM-_FX0-FtEjdSJRzuxN-8" value="" style="ellipse;whiteSpace=wrap;html=1;aspect=fixed;" vertex="1" parent="iM-_FX0-FtEjdSJRzuxN-2">
          <mxGeometry x="75" y="40" width="20" height="20" as="geometry" />
        </mxCell>
        <mxCell id="iM-_FX0-FtEjdSJRzuxN-7" value="" style="shape=waypoint;sketch=0;fillStyle=solid;size=6;pointerEvents=1;points=[];fillColor=none;resizable=0;rotatable=0;perimeter=centerPerimeter;snapToPoint=1;" vertex="1" parent="iM-_FX0-FtEjdSJRzuxN-2">
          <mxGeometry x="75" y="40" width="20" height="20" as="geometry" />
        </mxCell>
        <mxCell id="iM-_FX0-FtEjdSJRzuxN-9" value="" style="endArrow=classic;html=1;rounded=0;exitX=0.75;exitY=1.5;exitDx=0;exitDy=0;exitPerimeter=0;" edge="1" parent="iM-_FX0-FtEjdSJRzuxN-2" source="iM-_FX0-FtEjdSJRzuxN-7" target="iM-_FX0-FtEjdSJRzuxN-11">
          <mxGeometry width="50" height="50" relative="1" as="geometry">
            <mxPoint x="110" y="70" as="sourcePoint" />
            <mxPoint x="85" y="80" as="targetPoint" />
          </mxGeometry>
        </mxCell>
        <mxCell id="iM-_FX0-FtEjdSJRzuxN-11" value="" style="line;strokeWidth=4;html=1;perimeter=backbonePerimeter;points=[];outlineConnect=0;" vertex="1" parent="iM-_FX0-FtEjdSJRzuxN-2">
          <mxGeometry x="40" y="70" width="90" height="10" as="geometry" />
        </mxCell>
        <mxCell id="iM-_FX0-FtEjdSJRzuxN-12" value="" style="endArrow=classic;html=1;rounded=0;entryX=0.5;entryY=0;entryDx=0;entryDy=0;" edge="1" parent="iM-_FX0-FtEjdSJRzuxN-2" source="iM-_FX0-FtEjdSJRzuxN-11" target="iM-_FX0-FtEjdSJRzuxN-3">
          <mxGeometry width="50" height="50" relative="1" as="geometry">
            <mxPoint x="80" y="110" as="sourcePoint" />
            <mxPoint x="80" y="160" as="targetPoint" />
          </mxGeometry>
        </mxCell>
        <mxCell id="iM-_FX0-FtEjdSJRzuxN-24" value="" style="endArrow=classic;html=1;rounded=0;edgeStyle=elbowEdgeStyle;exitX=0;exitY=0.5;exitDx=0;exitDy=0;" edge="1" parent="iM-_FX0-FtEjdSJRzuxN-2" source="iM-_FX0-FtEjdSJRzuxN-18" target="iM-_FX0-FtEjdSJRzuxN-11">
          <mxGeometry width="50" height="50" relative="1" as="geometry">
            <mxPoint x="300" y="370" as="sourcePoint" />
            <mxPoint x="350" y="320" as="targetPoint" />
            <Array as="points">
              <mxPoint x="-20" y="260" />
            </Array>
          </mxGeometry>
        </mxCell>
        <mxCell id="iM-_FX0-FtEjdSJRzuxN-14" value="" style="line;strokeWidth=4;html=1;perimeter=backbonePerimeter;points=[];outlineConnect=0;" vertex="1" parent="iM-_FX0-FtEjdSJRzuxN-2">
          <mxGeometry x="40" y="520" width="90" height="10" as="geometry" />
        </mxCell>
        <mxCell id="iM-_FX0-FtEjdSJRzuxN-16" value="" style="ellipse;whiteSpace=wrap;html=1;aspect=fixed;" vertex="1" parent="iM-_FX0-FtEjdSJRzuxN-2">
          <mxGeometry x="75" y="595" width="20" height="20" as="geometry" />
        </mxCell>
        <mxCell id="iM-_FX0-FtEjdSJRzuxN-17" value="" style="shape=waypoint;sketch=0;fillStyle=solid;size=6;pointerEvents=1;points=[];fillColor=none;resizable=0;rotatable=0;perimeter=centerPerimeter;snapToPoint=1;" vertex="1" parent="iM-_FX0-FtEjdSJRzuxN-2">
          <mxGeometry x="75" y="595" width="20" height="20" as="geometry" />
        </mxCell>
        <mxCell id="iM-_FX0-FtEjdSJRzuxN-18" value="" style="rhombus;whiteSpace=wrap;html=1;" vertex="1" parent="iM-_FX0-FtEjdSJRzuxN-2">
          <mxGeometry x="65" y="545" width="40" height="40" as="geometry" />
        </mxCell>
        <mxCell id="iM-_FX0-FtEjdSJRzuxN-20" value="" style="endArrow=classic;html=1;rounded=0;entryX=0.5;entryY=0;entryDx=0;entryDy=0;" edge="1" parent="iM-_FX0-FtEjdSJRzuxN-2" source="iM-_FX0-FtEjdSJRzuxN-14" target="iM-_FX0-FtEjdSJRzuxN-18">
          <mxGeometry width="50" height="50" relative="1" as="geometry">
            <mxPoint x="250" y="615" as="sourcePoint" />
            <mxPoint x="300" y="565" as="targetPoint" />
          </mxGeometry>
        </mxCell>
        <mxCell id="iM-_FX0-FtEjdSJRzuxN-21" value="" style="endArrow=classic;html=1;rounded=0;entryX=0.57;entryY=0.07;entryDx=0;entryDy=0;entryPerimeter=0;exitX=0.5;exitY=1;exitDx=0;exitDy=0;" edge="1" parent="iM-_FX0-FtEjdSJRzuxN-2" source="iM-_FX0-FtEjdSJRzuxN-18" target="iM-_FX0-FtEjdSJRzuxN-17">
          <mxGeometry width="50" height="50" relative="1" as="geometry">
            <mxPoint x="250" y="615" as="sourcePoint" />
            <mxPoint x="300" y="565" as="targetPoint" />
          </mxGeometry>
        </mxCell>
        <mxCell id="iM-_FX0-FtEjdSJRzuxN-22" value="Да" style="text;html=1;align=center;verticalAlign=middle;resizable=0;points=[];autosize=1;strokeColor=none;fillColor=none;" vertex="1" parent="iM-_FX0-FtEjdSJRzuxN-2">
          <mxGeometry x="87.5" y="580" width="40" height="30" as="geometry" />
        </mxCell>
        <mxCell id="iM-_FX0-FtEjdSJRzuxN-19" value="&lt;font style=&quot;font-size: 12px;&quot;&gt;Игра окончена?&lt;/font&gt;" style="text;html=1;align=center;verticalAlign=middle;resizable=0;points=[];autosize=1;strokeColor=none;fillColor=none;" vertex="1" parent="iM-_FX0-FtEjdSJRzuxN-2">
          <mxGeometry x="-30" y="565" width="110" height="30" as="geometry" />
        </mxCell>
        <mxCell id="iM-_FX0-FtEjdSJRzuxN-4" value="BehaviorTree:&lt;br&gt;GlobalBT" style="swimlane;whiteSpace=wrap;html=1;startSize=30;" vertex="1" parent="1">
          <mxGeometry x="290" y="190" width="110" height="620" as="geometry" />
        </mxCell>
        <mxCell id="iM-_FX0-FtEjdSJRzuxN-5" value="Выбор цели" style="rounded=1;whiteSpace=wrap;html=1;" vertex="1" parent="iM-_FX0-FtEjdSJRzuxN-4">
          <mxGeometry x="15" y="70" width="80" height="40" as="geometry" />
        </mxCell>
        <mxCell id="iM-_FX0-FtEjdSJRzuxN-31" value="" style="rhombus;whiteSpace=wrap;html=1;" vertex="1" parent="iM-_FX0-FtEjdSJRzuxN-4">
          <mxGeometry x="35" y="170" width="40" height="40" as="geometry" />
        </mxCell>
        <mxCell id="iM-_FX0-FtEjdSJRzuxN-33" value="" style="endArrow=classic;html=1;rounded=0;exitX=0.5;exitY=1;exitDx=0;exitDy=0;entryX=0.5;entryY=0;entryDx=0;entryDy=0;" edge="1" parent="iM-_FX0-FtEjdSJRzuxN-4" source="iM-_FX0-FtEjdSJRzuxN-5" target="iM-_FX0-FtEjdSJRzuxN-31">
          <mxGeometry width="50" height="50" relative="1" as="geometry">
            <mxPoint x="110" y="310" as="sourcePoint" />
            <mxPoint x="160" y="260" as="targetPoint" />
          </mxGeometry>
        </mxCell>
        <mxCell id="iM-_FX0-FtEjdSJRzuxN-36" value="Нет" style="text;html=1;align=center;verticalAlign=middle;resizable=0;points=[];autosize=1;strokeColor=none;fillColor=none;" vertex="1" parent="iM-_FX0-FtEjdSJRzuxN-4">
          <mxGeometry x="60" y="220" width="40" height="30" as="geometry" />
        </mxCell>
        <mxCell id="iM-_FX0-FtEjdSJRzuxN-68" value="Да" style="text;html=1;align=center;verticalAlign=middle;resizable=0;points=[];autosize=1;strokeColor=none;fillColor=none;" vertex="1" parent="iM-_FX0-FtEjdSJRzuxN-4">
          <mxGeometry x="20" y="310" width="40" height="30" as="geometry" />
        </mxCell>
        <mxCell id="iM-_FX0-FtEjdSJRzuxN-13" value="" style="endArrow=classic;html=1;rounded=0;edgeStyle=orthogonalEdgeStyle;entryX=0;entryY=0.5;entryDx=0;entryDy=0;" edge="1" parent="1" source="iM-_FX0-FtEjdSJRzuxN-11" target="iM-_FX0-FtEjdSJRzuxN-5">
          <mxGeometry width="50" height="50" relative="1" as="geometry">
            <mxPoint x="400" y="370" as="sourcePoint" />
            <mxPoint x="450" y="320" as="targetPoint" />
            <Array as="points">
              <mxPoint x="235" y="280" />
              <mxPoint x="305" y="280" />
            </Array>
          </mxGeometry>
        </mxCell>
        <mxCell id="iM-_FX0-FtEjdSJRzuxN-23" value="Нет" style="text;html=1;align=center;verticalAlign=middle;resizable=0;points=[];autosize=1;strokeColor=none;fillColor=none;" vertex="1" parent="1">
          <mxGeometry x="60" y="500" width="40" height="30" as="geometry" />
        </mxCell>
        <mxCell id="iM-_FX0-FtEjdSJRzuxN-25" value="BehaviorTree:&lt;br&gt;ScoutBT" style="swimlane;whiteSpace=wrap;html=1;startSize=30;" vertex="1" parent="1">
          <mxGeometry x="400" y="190" width="110" height="620" as="geometry" />
        </mxCell>
        <mxCell id="iM-_FX0-FtEjdSJRzuxN-26" value="Запрос юнитов" style="rounded=1;whiteSpace=wrap;html=1;" vertex="1" parent="iM-_FX0-FtEjdSJRzuxN-25">
          <mxGeometry x="7.5" y="210" width="95" height="30" as="geometry" />
        </mxCell>
        <mxCell id="iM-_FX0-FtEjdSJRzuxN-40" value="Выбор разведчика" style="rounded=1;whiteSpace=wrap;html=1;" vertex="1" parent="iM-_FX0-FtEjdSJRzuxN-25">
          <mxGeometry x="7.5" y="270" width="95" height="30" as="geometry" />
        </mxCell>
        <mxCell id="iM-_FX0-FtEjdSJRzuxN-28" value="Разведка" style="rounded=1;whiteSpace=wrap;html=1;" vertex="1" parent="iM-_FX0-FtEjdSJRzuxN-25">
          <mxGeometry x="10" y="310" width="90" height="30" as="geometry" />
        </mxCell>
        <mxCell id="iM-_FX0-FtEjdSJRzuxN-47" value="" style="endArrow=classic;html=1;rounded=0;exitX=0.5;exitY=1;exitDx=0;exitDy=0;entryX=0.5;entryY=0;entryDx=0;entryDy=0;" edge="1" parent="iM-_FX0-FtEjdSJRzuxN-25" source="iM-_FX0-FtEjdSJRzuxN-40" target="iM-_FX0-FtEjdSJRzuxN-28">
          <mxGeometry width="50" height="50" relative="1" as="geometry">
            <mxPoint y="190" as="sourcePoint" />
            <mxPoint x="50" y="140" as="targetPoint" />
          </mxGeometry>
        </mxCell>
        <mxCell id="iM-_FX0-FtEjdSJRzuxN-32" value="Вражеская база&lt;br&gt;обнаружена?" style="text;html=1;align=center;verticalAlign=middle;resizable=0;points=[];autosize=1;strokeColor=none;fillColor=none;" vertex="1" parent="iM-_FX0-FtEjdSJRzuxN-25">
          <mxGeometry x="-41" y="170" width="110" height="40" as="geometry" />
        </mxCell>
        <mxCell id="iM-_FX0-FtEjdSJRzuxN-27" value="BehaviorTree:&lt;br&gt;AttackBT" style="swimlane;whiteSpace=wrap;html=1;startSize=30;" vertex="1" parent="1">
          <mxGeometry x="510" y="190" width="110" height="620" as="geometry" />
        </mxCell>
        <mxCell id="iM-_FX0-FtEjdSJRzuxN-52" value="Запрос юнитов" style="rounded=1;whiteSpace=wrap;html=1;" vertex="1" parent="iM-_FX0-FtEjdSJRzuxN-27">
          <mxGeometry x="15" y="360" width="90" height="30" as="geometry" />
        </mxCell>
        <mxCell id="iM-_FX0-FtEjdSJRzuxN-58" value="Запрос вражеских координат" style="rounded=1;whiteSpace=wrap;html=1;" vertex="1" parent="iM-_FX0-FtEjdSJRzuxN-27">
          <mxGeometry x="5" y="400" width="100" height="50" as="geometry" />
        </mxCell>
        <mxCell id="iM-_FX0-FtEjdSJRzuxN-65" value="Атака" style="rounded=1;whiteSpace=wrap;html=1;" vertex="1" parent="iM-_FX0-FtEjdSJRzuxN-27">
          <mxGeometry x="15" y="490" width="80" height="30" as="geometry" />
        </mxCell>
        <mxCell id="iM-_FX0-FtEjdSJRzuxN-29" value="Blackboard" style="swimlane;whiteSpace=wrap;html=1;startSize=30;" vertex="1" parent="1">
          <mxGeometry x="620" y="190" width="260" height="620" as="geometry" />
        </mxCell>
        <mxCell id="iM-_FX0-FtEjdSJRzuxN-30" value="Получение списка боевых юнитов" style="rounded=1;whiteSpace=wrap;html=1;" vertex="1" parent="iM-_FX0-FtEjdSJRzuxN-29">
          <mxGeometry x="35" y="210" width="190" height="40" as="geometry" />
        </mxCell>
        <mxCell id="iM-_FX0-FtEjdSJRzuxN-38" value="Боевые юниты" style="rounded=0;whiteSpace=wrap;html=1;" vertex="1" parent="iM-_FX0-FtEjdSJRzuxN-29">
          <mxGeometry x="35" y="270" width="190" height="30" as="geometry" />
        </mxCell>
        <mxCell id="iM-_FX0-FtEjdSJRzuxN-42" value="Сохранение информации о созданных/потерянных юнитах" style="rounded=1;whiteSpace=wrap;html=1;" vertex="1" parent="iM-_FX0-FtEjdSJRzuxN-29">
          <mxGeometry x="40" y="120" width="180" height="50" as="geometry" />
        </mxCell>
        <mxCell id="iM-_FX0-FtEjdSJRzuxN-48" value="Сохранение координат соперника" style="rounded=1;whiteSpace=wrap;html=1;" vertex="1" parent="iM-_FX0-FtEjdSJRzuxN-29">
          <mxGeometry x="35" y="310" width="190" height="30" as="geometry" />
        </mxCell>
        <mxCell id="iM-_FX0-FtEjdSJRzuxN-54" value="Получение списка боевых юнитов" style="rounded=1;whiteSpace=wrap;html=1;" vertex="1" parent="iM-_FX0-FtEjdSJRzuxN-29">
          <mxGeometry x="20" y="360" width="220" height="30" as="geometry" />
        </mxCell>
        <mxCell id="iM-_FX0-FtEjdSJRzuxN-56" value="Боевые юниты" style="rounded=0;whiteSpace=wrap;html=1;" vertex="1" parent="iM-_FX0-FtEjdSJRzuxN-29">
          <mxGeometry x="80" y="410" width="100" height="30" as="geometry" />
        </mxCell>
        <mxCell id="iM-_FX0-FtEjdSJRzuxN-57" value="" style="endArrow=classic;html=1;rounded=0;exitX=0.5;exitY=1;exitDx=0;exitDy=0;entryX=0.5;entryY=0;entryDx=0;entryDy=0;" edge="1" parent="iM-_FX0-FtEjdSJRzuxN-29" source="iM-_FX0-FtEjdSJRzuxN-54" target="iM-_FX0-FtEjdSJRzuxN-56">
          <mxGeometry width="50" height="50" relative="1" as="geometry">
            <mxPoint x="-141.25" y="410" as="sourcePoint" />
            <mxPoint x="-91.25" y="360" as="targetPoint" />
          </mxGeometry>
        </mxCell>
        <mxCell id="iM-_FX0-FtEjdSJRzuxN-60" value="Получение координат соперника" style="rounded=1;whiteSpace=wrap;html=1;" vertex="1" parent="iM-_FX0-FtEjdSJRzuxN-29">
          <mxGeometry x="25" y="450" width="195" height="30" as="geometry" />
        </mxCell>
        <mxCell id="iM-_FX0-FtEjdSJRzuxN-62" value="Координаты соперника" style="rounded=0;whiteSpace=wrap;html=1;" vertex="1" parent="iM-_FX0-FtEjdSJRzuxN-29">
          <mxGeometry x="43.75" y="490" width="157.5" height="30" as="geometry" />
        </mxCell>
        <mxCell id="iM-_FX0-FtEjdSJRzuxN-63" value="" style="endArrow=classic;html=1;rounded=0;exitX=0.5;exitY=1;exitDx=0;exitDy=0;entryX=0.5;entryY=0;entryDx=0;entryDy=0;" edge="1" parent="iM-_FX0-FtEjdSJRzuxN-29" source="iM-_FX0-FtEjdSJRzuxN-60" target="iM-_FX0-FtEjdSJRzuxN-62">
          <mxGeometry width="50" height="50" relative="1" as="geometry">
            <mxPoint x="-141.25" y="610" as="sourcePoint" />
            <mxPoint x="-91.25" y="560" as="targetPoint" />
          </mxGeometry>
        </mxCell>
        <mxCell id="iM-_FX0-FtEjdSJRzuxN-69" value="" style="endArrow=classic;html=1;rounded=0;exitX=0.5;exitY=1;exitDx=0;exitDy=0;entryX=0.5;entryY=0;entryDx=0;entryDy=0;" edge="1" parent="iM-_FX0-FtEjdSJRzuxN-29" source="iM-_FX0-FtEjdSJRzuxN-30" target="iM-_FX0-FtEjdSJRzuxN-38">
          <mxGeometry width="50" height="50" relative="1" as="geometry">
            <mxPoint x="-162.5" y="210" as="sourcePoint" />
            <mxPoint x="-112.5" y="160" as="targetPoint" />
          </mxGeometry>
        </mxCell>
        <mxCell id="iM-_FX0-FtEjdSJRzuxN-35" value="" style="endArrow=classic;html=1;rounded=0;edgeStyle=orthogonalEdgeStyle;exitX=0.5;exitY=1;exitDx=0;exitDy=0;entryX=0;entryY=0.5;entryDx=0;entryDy=0;" edge="1" parent="1" source="iM-_FX0-FtEjdSJRzuxN-31" target="iM-_FX0-FtEjdSJRzuxN-26">
          <mxGeometry width="50" height="50" relative="1" as="geometry">
            <mxPoint x="345" y="400" as="sourcePoint" />
            <mxPoint x="450" y="540" as="targetPoint" />
          </mxGeometry>
        </mxCell>
        <mxCell id="iM-_FX0-FtEjdSJRzuxN-37" value="" style="endArrow=classic;html=1;rounded=0;exitX=1;exitY=0.5;exitDx=0;exitDy=0;entryX=0;entryY=0.25;entryDx=0;entryDy=0;" edge="1" parent="1" source="iM-_FX0-FtEjdSJRzuxN-26" target="iM-_FX0-FtEjdSJRzuxN-30">
          <mxGeometry width="50" height="50" relative="1" as="geometry">
            <mxPoint x="397.5" y="510" as="sourcePoint" />
            <mxPoint x="600" y="430" as="targetPoint" />
          </mxGeometry>
        </mxCell>
        <mxCell id="iM-_FX0-FtEjdSJRzuxN-41" value="" style="endArrow=classic;html=1;rounded=0;exitX=0;exitY=0.5;exitDx=0;exitDy=0;entryX=1;entryY=0.5;entryDx=0;entryDy=0;" edge="1" parent="1" source="iM-_FX0-FtEjdSJRzuxN-38" target="iM-_FX0-FtEjdSJRzuxN-40">
          <mxGeometry width="50" height="50" relative="1" as="geometry">
            <mxPoint x="397.5" y="510" as="sourcePoint" />
            <mxPoint x="447.5" y="460" as="targetPoint" />
          </mxGeometry>
        </mxCell>
        <mxCell id="iM-_FX0-FtEjdSJRzuxN-44" value="" style="endArrow=classic;html=1;rounded=0;exitX=1.008;exitY=0.609;exitDx=0;exitDy=0;entryX=0;entryY=0.5;entryDx=0;entryDy=0;exitPerimeter=0;" edge="1" parent="1" source="iM-_FX0-FtEjdSJRzuxN-3" target="iM-_FX0-FtEjdSJRzuxN-42">
          <mxGeometry width="50" height="50" relative="1" as="geometry">
            <mxPoint x="400" y="500" as="sourcePoint" />
            <mxPoint x="450" y="450" as="targetPoint" />
          </mxGeometry>
        </mxCell>
        <mxCell id="iM-_FX0-FtEjdSJRzuxN-46" value="" style="endArrow=classic;html=1;rounded=0;edgeStyle=elbowEdgeStyle;exitX=0;exitY=1;exitDx=0;exitDy=0;" edge="1" parent="1" source="iM-_FX0-FtEjdSJRzuxN-42" target="iM-_FX0-FtEjdSJRzuxN-14">
          <mxGeometry width="50" height="50" relative="1" as="geometry">
            <mxPoint x="400" y="500" as="sourcePoint" />
            <mxPoint x="450" y="450" as="targetPoint" />
            <Array as="points">
              <mxPoint x="235" y="590" />
            </Array>
          </mxGeometry>
        </mxCell>
        <mxCell id="iM-_FX0-FtEjdSJRzuxN-49" value="" style="endArrow=classic;html=1;rounded=0;exitX=1;exitY=0.5;exitDx=0;exitDy=0;entryX=0;entryY=0.5;entryDx=0;entryDy=0;" edge="1" parent="1" source="iM-_FX0-FtEjdSJRzuxN-28" target="iM-_FX0-FtEjdSJRzuxN-48">
          <mxGeometry width="50" height="50" relative="1" as="geometry">
            <mxPoint x="397.5" y="400" as="sourcePoint" />
            <mxPoint x="447.5" y="350" as="targetPoint" />
          </mxGeometry>
        </mxCell>
        <mxCell id="iM-_FX0-FtEjdSJRzuxN-51" value="" style="endArrow=classic;html=1;rounded=0;edgeStyle=orthogonalEdgeStyle;exitX=0.5;exitY=1;exitDx=0;exitDy=0;" edge="1" parent="1" source="iM-_FX0-FtEjdSJRzuxN-48" target="iM-_FX0-FtEjdSJRzuxN-14">
          <mxGeometry width="50" height="50" relative="1" as="geometry">
            <mxPoint x="400" y="800" as="sourcePoint" />
            <mxPoint x="260" y="870" as="targetPoint" />
            <Array as="points">
              <mxPoint x="750" y="540" />
              <mxPoint x="235" y="540" />
            </Array>
          </mxGeometry>
        </mxCell>
        <mxCell id="iM-_FX0-FtEjdSJRzuxN-53" value="" style="endArrow=classic;html=1;rounded=0;edgeStyle=elbowEdgeStyle;exitX=0.5;exitY=1;exitDx=0;exitDy=0;entryX=0;entryY=0.5;entryDx=0;entryDy=0;" edge="1" parent="1" source="iM-_FX0-FtEjdSJRzuxN-31" target="iM-_FX0-FtEjdSJRzuxN-52">
          <mxGeometry width="50" height="50" relative="1" as="geometry">
            <mxPoint x="400" y="700" as="sourcePoint" />
            <mxPoint x="450" y="650" as="targetPoint" />
            <Array as="points">
              <mxPoint x="345" y="570" />
              <mxPoint x="440" y="600" />
            </Array>
          </mxGeometry>
        </mxCell>
        <mxCell id="iM-_FX0-FtEjdSJRzuxN-55" value="" style="endArrow=classic;html=1;rounded=0;exitX=1;exitY=0.5;exitDx=0;exitDy=0;entryX=0;entryY=0.5;entryDx=0;entryDy=0;" edge="1" parent="1" source="iM-_FX0-FtEjdSJRzuxN-52" target="iM-_FX0-FtEjdSJRzuxN-54">
          <mxGeometry width="50" height="50" relative="1" as="geometry">
            <mxPoint x="421.25" y="600" as="sourcePoint" />
            <mxPoint x="471.25" y="550" as="targetPoint" />
          </mxGeometry>
        </mxCell>
        <mxCell id="iM-_FX0-FtEjdSJRzuxN-59" value="" style="endArrow=classic;html=1;rounded=0;exitX=0;exitY=0.5;exitDx=0;exitDy=0;entryX=1;entryY=0.5;entryDx=0;entryDy=0;" edge="1" parent="1" source="iM-_FX0-FtEjdSJRzuxN-56" target="iM-_FX0-FtEjdSJRzuxN-58">
          <mxGeometry width="50" height="50" relative="1" as="geometry">
            <mxPoint x="421.25" y="600" as="sourcePoint" />
            <mxPoint x="680" y="650" as="targetPoint" />
          </mxGeometry>
        </mxCell>
        <mxCell id="iM-_FX0-FtEjdSJRzuxN-61" value="" style="endArrow=classic;html=1;rounded=0;edgeStyle=elbowEdgeStyle;exitX=0.5;exitY=1;exitDx=0;exitDy=0;entryX=0;entryY=0.5;entryDx=0;entryDy=0;" edge="1" parent="1" source="iM-_FX0-FtEjdSJRzuxN-58" target="iM-_FX0-FtEjdSJRzuxN-60">
          <mxGeometry width="50" height="50" relative="1" as="geometry">
            <mxPoint x="421.25" y="700" as="sourcePoint" />
            <mxPoint x="471.25" y="650" as="targetPoint" />
            <Array as="points">
              <mxPoint x="565" y="655" />
              <mxPoint x="610" y="730" />
            </Array>
          </mxGeometry>
        </mxCell>
        <mxCell id="iM-_FX0-FtEjdSJRzuxN-66" value="" style="endArrow=classic;html=1;rounded=0;exitX=0;exitY=0.5;exitDx=0;exitDy=0;entryX=1;entryY=0.5;entryDx=0;entryDy=0;" edge="1" parent="1" source="iM-_FX0-FtEjdSJRzuxN-62" target="iM-_FX0-FtEjdSJRzuxN-65">
          <mxGeometry width="50" height="50" relative="1" as="geometry">
            <mxPoint x="421.25" y="700" as="sourcePoint" />
            <mxPoint x="471.25" y="650" as="targetPoint" />
          </mxGeometry>
        </mxCell>
        <mxCell id="iM-_FX0-FtEjdSJRzuxN-67" value="" style="endArrow=classic;html=1;rounded=0;exitX=0;exitY=0.5;exitDx=0;exitDy=0;edgeStyle=elbowEdgeStyle;" edge="1" parent="1" source="iM-_FX0-FtEjdSJRzuxN-65" target="iM-_FX0-FtEjdSJRzuxN-14">
          <mxGeometry width="50" height="50" relative="1" as="geometry">
            <mxPoint x="421.25" y="900" as="sourcePoint" />
            <mxPoint x="281.25" y="810" as="targetPoint" />
            <Array as="points">
              <mxPoint x="340" y="710" />
              <mxPoint x="300" y="710" />
              <mxPoint x="371.25" y="790" />
              <mxPoint x="256.25" y="850" />
            </Array>
          </mxGeometry>
        </mxCell>
      </root>
    </mxGraphModel>
  </diagram>
</mxfile>
